HIERARCHY
ROOT Hips
{
  OFFSET -33.9132 29.2015 117.021
  CHANNELS 6 Xposition Yposition Zposition Zrotation Xrotation Yrotation
  JOINT LeftUpLeg
  {
    OFFSET 8.64259 1.95398 -2.38835
    CHANNELS 3 Zrotation Xrotation Yrotation
    JOINT LeftLeg
    {
      OFFSET 43.7702 0 0
      CHANNELS 3 Zrotation Xrotation Yrotation
      JOINT LeftFoot
      {
        OFFSET 40.6238 0 0
        CHANNELS 3 Zrotation Xrotation Yrotation
        JOINT LeftToeBase
        {
          OFFSET 12.7242 0 0
          CHANNELS 3 Zrotation Xrotation Yrotation
          End Site
          {
            OFFSET 0 0 0
          }
        }
      }
    }
  }
  JOINT RightUpLeg
  {
    OFFSET -8.2249 1.95398 -2.59336
    CHANNELS 3 Zrotation Xrotation Yrotation
    JOINT RightLeg
    {
      OFFSET 43.5653 0 0
      CHANNELS 3 Zrotation Xrotation Yrotation
      JOINT RightFoot
      {
        OFFSET 40.6238 0 0
        CHANNELS 3 Zrotation Xrotation Yrotation
        JOINT RightToeBase
        {
          OFFSET 12.7242 0 0
          CHANNELS 3 Zrotation Xrotation Yrotation
          End Site
          {
            OFFSET 0 0 0
          }
        }
      }
    }
  }
  JOINT Spine
  {
    OFFSET 0.165834 0.87714 6.61349
    CHANNELS 3 Zrotation Xrotation Yrotation
    JOINT Spine1
    {
      OFFSET 7.38963 1.71661e-005 0
      CHANNELS 3 Zrotation Xrotation Yrotation
      JOINT Spine2
      {
        OFFSET 11.9445 1.14441e-005 0
        CHANNELS 3 Zrotation Xrotation Yrotation
        JOINT Spine3
        {
          OFFSET 14.7254 4.19617e-005 0
          CHANNELS 3 Zrotation Xrotation Yrotation
          JOINT Spine4
          {
            OFFSET 10.9679 0 0
            CHANNELS 3 Zrotation Xrotation Yrotation
            JOINT RightShoulder
            {
              OFFSET 2.46616 -1.6653 3.69651
              CHANNELS 3 Zrotation Xrotation Yrotation
              JOINT RightArm
              {
                OFFSET 13.0012 0 0
                CHANNELS 3 Zrotation Xrotation Yrotation
                JOINT RightForeArm
                {
                  OFFSET 28.7848 1.62311e-005 0
                  CHANNELS 3 Zrotation Xrotation Yrotation
                  JOINT RightHand
                  {
                    OFFSET 26.5688 1.62095e-005 0
                    CHANNELS 3 Zrotation Xrotation Yrotation
                    End Site
                    {
                      OFFSET 0 0 0
                    }
                  }
                }
              }
            }
            JOINT LeftShoulder
            {
              OFFSET 2.38034 -1.29275 -3.7523
              CHANNELS 3 Zrotation Xrotation Yrotation
              JOINT LeftArm
              {
                OFFSET 16.3182 6.07031e-005 0
                CHANNELS 3 Zrotation Xrotation Yrotation
                JOINT LeftForeArm
                {
                  OFFSET 27.0901 0 0
                  CHANNELS 3 Zrotation Xrotation Yrotation
                  JOINT LeftHand
                  {
                    OFFSET 24.5451 1.51738e-005 0
                    CHANNELS 3 Zrotation Xrotation Yrotation
                    End Site
                    {
                      OFFSET 0 0 0
                    }
                  }
                }
              }
            }
            JOINT Neck
            {
              OFFSET 5.0226 -0.0266342 0
              CHANNELS 3 Zrotation Xrotation Yrotation
              JOINT Head
              {
                OFFSET 6.69364 2.86102e-005 0
                CHANNELS 3 Zrotation Xrotation Yrotation
                End Site
                {
                  OFFSET 0 0 0
                }
              }
            }
          }
        }
      }
    }
  }
}
MOTION
Frames:	17
Frame Time:	0.0416667
66.7752 86.6805 33.3574 92.2636 -34.55 103.167 -164.92 39.4412 79.1095 -78.7534 13.5838 -1.49754 80.0853 14.6383 5.7422 22.2488 1.38898 -9.21268 164.84 -4.30981 83.4376 -41.7692 -7.8833 2.74838 74.7436 -10.2312 -1.80552 51.2716 -9.93741 -1.41165 2.88884 8.00618 -90.7598 10.9168 5.40035 -2.0212 -0.744893 5.30616 -2.25746 -23.3696 5.75736 -0.299695 -3.35695 5.75736 -0.2997 93.8331 -14.6489 -104.538 26.8469 -0.252112 20.3179 -37.421 11.1734 -109.104 -41.7667 16.28 -46.8728 -84.1342 -43.4816 86.7421 -27.5338 10.4941 49.7462 23.3677 13.2168 -59.0248 17.8356 -13.3918 -66.7322 23.4479 0.94133 2.03759 -8.88296 0.0870476 2.20878 
71.493 88.2511 37.5664 90.9236 -31.6296 102.97 -164.086 38.7281 78.7802 -68.8805 12.8673 -4.07394 80.9127 15.1845 4.96273 18.9866 0.276126 -9.36877 165.611 -10.4095 84.6974 -34.7166 -7.45846 3.6609 66.0546 -3.57434 -0.826687 54.9946 -11.5338 0.647028 3.11618 7.91049 -90.7577 11.1157 5.85124 -2.07539 -0.544114 5.75425 -2.3316 -23.1849 6.20349 -0.21446 -3.17224 6.20352 -0.214463 94.4733 -12.2499 -103.954 25.8548 -5.48572 21.5751 -32.1279 11.9364 -113.874 -45.1987 16.2114 -43.4726 -84.6756 -41.0939 85.5095 -30.2402 10.7534 53.538 22.1327 11.7915 -58.7127 17.5163 -13.1522 -66.7 27.0492 -0.985938 1.51665 -12.2095 -1.68773 2.10838 
76.7817 89.8833 41.8067 89.374 -28.5263 102.635 -163.851 36.6901 78.7416 -58.5066 11.9819 -6.71536 78.5501 13.3779 4.60272 19.6794 -0.440157 -7.43299 167.682 -15.3797 86.733 -29.4443 -7.34876 3.57251 59.3256 1.74794 0.827398 47.9165 -8.70256 4.63186 3.11884 7.77667 -90.6327 11.3806 5.91102 -1.85483 -0.278545 5.82364 -2.11394 -22.9221 6.19421 0.0140714 -2.9094 6.1942 0.0140706 94.4406 -12.0811 -104.131 25.0019 -9.74211 20.7308 -36.6522 14.5334 -114.053 -49.6439 15.8779 -39.1583 -84.7847 -37.7493 84.7813 -33.5734 9.99136 55.91 20.577 9.50561 -59.236 17.1014 -12.9313 -67.0441 30.12 -2.47735 -0.379908 -14.7745 -2.40521 1.74098 
81.8332 90.8806 45.7766 86.524 -25.8701 101.877 -164.446 35.9938 78.688 -49.485 11.2968 -8.51155 76.0057 11.5529 4.44362 17.0505 -0.603297 -9.10248 170.402 -16.3078 89.7794 -29.6093 -10.3144 2.57937 59.5816 1.92058 0.577595 26.3477 -0.597822 6.45935 3.02014 7.54557 -90.4277 11.8334 5.80507 -1.47154 0.174327 5.73469 -1.72637 -22.4654 5.97802 0.347416 -2.45278 5.978 0.347402 94.2903 -12.6165 -104.285 24.6509 -14.4096 19.04 -39.4972 15.3503 -113.011 -52.1638 15.58 -36.7844 -85.3287 -35.7656 83.4721 -36.2834 9.73513 57.0981 18.9274 7.46553 -59.3013 17.9459 -13.8166 -68.5062 31.6901 -3.39118 -2.14366 -14.7456 -2.37066 0.329961 
86.6473 91.0195 49.1901 84.4251 -24.3235 101.941 -165.252 35.4278 79.5025 -42.9376 11.8576 -9.53146 72.5118 8.86586 4.24231 13.3306 -2.6802 -8.01912 171.893 -14.9853 91.8507 -34.5521 -14.1952 1.5985 61.6236 0.0561924 -0.234509 20.3432 1.45507 7.48368 2.90537 7.3911 -90.3874 12.1388 5.59229 -1.39132 0.478867 5.52561 -1.6368 -22.1533 5.75106 0.359306 -2.14069 5.75105 0.359306 94.4668 -12.8537 -103.687 25.1136 -19.8118 16.4089 -42.4505 14.6559 -110.33 -50.48 14.5778 -35.9144 -86.5554 -37.177 81.5761 -36.4881 7.36487 56.5483 19.3574 6.9943 -60.9622 19.9429 -14.797 -67.2196 32.1346 -3.35963 -2.56954 -13.2708 -2.07983 -0.387887 
91.2562 90.746 52.2595 84.3577 -23.5031 103.079 -166.954 32.6926 81.3058 -38.1052 12.1125 -9.07577 70.2962 7.07694 3.58817 11.6575 -2.79766 -8.8797 171.364 -13.0899 91.9386 -43.5518 -15.8377 1.31551 63.0768 -1.42069 -1.58924 23.7428 -0.549239 9.84856 2.7368 7.37871 -90.4585 12.1625 5.22323 -1.49491 0.500962 5.15237 -1.72388 -22.1189 5.43039 0.148594 -2.10622 5.43035 0.148579 93.6698 -15.0447 -104.779 27.9453 -24.0859 17.3012 -44.0293 12.1958 -106.799 -47.1688 13.4524 -35.7982 -86.5545 -39.5879 82.0688 -36.4727 7.19242 53.0963 20.2984 8.92904 -59.7049 23.5145 -16.7464 -65.7242 32.8495 -2.85974 -3.47206 -13.4033 -1.27148 0.408289 
96.1379 90.291 55.1145 85.7317 -21.8001 104.861 -167.066 28.6023 82.3506 -41.0367 14.5791 -8.9569 74.5607 11.4001 6.9752 1.44994 0.176845 -19.0135 169.673 -10.7742 91.1186 -55.4106 -10.684 1.41539 64.7494 -2.63001 -2.60486 19.493 1.20964 9.20968 2.42428 7.52563 -90.6186 11.8631 4.52991 -1.71759 0.19865 4.44992 -1.9156 -22.3993 4.83625 -0.273791 -2.3866 4.83622 -0.273805 92.7699 -17.2668 -106.014 33.1882 -26.2551 20.0358 -44.1894 7.90671 -101.784 -43.9618 11.9662 -34.7081 -86.7245 -41.7295 82.197 -36.0333 6.2502 46.9044 22.1615 12.7715 -57.8706 26.6229 -18.3501 -64.1936 31.9819 -1.66961 -4.17272 -12.4058 0.108575 0.661645 
100.926 89.5725 57.9569 87.3535 -19.9837 105.84 -167.452 22.0455 83.2989 -42.1737 14.7757 -8.24821 86.628 18.9919 2.37244 -13.9852 -8.44374 -15.821 168.154 -6.47513 90.2452 -69.4768 -0.96415 0.551389 67.0793 -4.51555 -3.2753 16.3144 2.65956 8.58625 2.03971 7.70623 -90.6497 11.4926 3.75452 -1.67749 -0.174197 3.67704 -1.84127 -22.7518 4.08485 -0.46989 -2.73914 4.08482 -0.469892 92.016 -19.6743 -106.718 39.2614 -24.4995 22.7879 -46.8304 1.12234 -95.5302 -42.519 12.0217 -35.9094 -87.0153 -43.6583 82.0882 -35.2082 5.63267 39.8082 20.4957 13.9562 -56.2296 27.49 -18.2274 -62.3697 29.4513 -0.61319 -5.80969 -10.1633 1.65061 1.09283 
105.101 88.7394 60.6318 86.9817 -17.3087 104.391 -168.498 17.5849 82.2505 -43.035 16.553 -7.30449 92.143 23.6919 2.69993 -10.5211 -13.0845 -8.90866 166.852 1.52945 89.7719 -83.3575 6.82905 -0.937522 68.9908 -6.71343 -4.45926 14.5533 3.99928 6.91733 1.51083 7.72397 -90.435 11.4422 2.80291 -1.15061 -0.226324 2.74958 -1.27293 -22.7853 3.01905 -0.254317 -2.77268 3.01906 -0.254317 91.6755 -23.1215 -105.993 43.3301 -19.9989 27.3119 -49.7698 -2.83176 -90.1278 -39.5718 11.3847 -36.6426 -87.4532 -46.4199 81.906 -32.0306 6.79821 30.777 18.2001 14.3327 -54.3247 25.8388 -17.341 -62.9122 27.5939 0.136658 -7.37619 -8.36694 2.88102 1.08985 
109.121 87.5469 63.0558 86.7026 -15.1729 100.688 -169.377 13.2324 79.3609 -43.2092 15.1953 -7.11768 94.8858 26.3045 2.69576 -5.0882 -9.19349 -10.252 167.992 11.2526 87.5475 -96.495 7.25555 -3.11225 71.3105 -9.23806 -6.44247 13.998 3.68748 8.29105 1.05284 7.90115 -89.9295 11.0721 2.12852 -0.0661605 -0.59713 2.12352 -0.159833 -23.1451 2.04995 0.576871 -3.13247 2.04994 0.576866 91.1356 -26.4588 -105.809 44.2563 -13.7344 35.1703 -53.8208 -4.78613 -88.8076 -40.9987 10.5557 -33.2998 -87.1339 -49.478 82.9384 -25.7435 10.5912 16.3714 15.1434 13.4532 -53.0901 28.6414 -19.0329 -62.9177 28.7311 0.395029 -8.185 -7.97216 3.56753 0.0524027 
113.054 86.2931 65.3403 84.9865 -10.0292 99.2617 -171.421 11.4818 78.9202 -45.3856 15.5018 -5.11353 98.514 28.3626 0.746279 1.11675 -4.95115 -12.1897 169.096 21.1864 88.8691 -107.136 2.71194 -3.70849 73.2703 -11.4345 -7.49516 13.2176 4.00821 8.27235 0.389273 7.95962 -89.7622 10.9526 0.885287 0.389663 -0.718075 0.901561 0.350317 -23.2546 0.727241 0.637718 -3.24192 0.72724 0.637718 91.2386 -27.5592 -105.178 44.5858 -9.15422 43.3206 -52.4062 -5.49154 -88.4944 -40.8817 10.0065 -31.9565 -86.7848 -50.2996 83.6006 -18.0644 12.226 -1.57975 15.0551 13.6431 -53.4873 27.1903 -17.8522 -62.2291 28.9228 0.227151 -9.10139 -5.76403 3.79596 -0.643972 
116.958 85.2358 67.6331 84.4475 -5.38802 99.7695 -172.882 8.27136 80.8927 -46.649 16.9575 -3.16751 104.092 31.2137 -2.14413 0.65371 -4.64316 -12.8685 170.799 30.4792 90.9971 -114.349 -0.436429 -3.97118 74.7967 -12.8147 -8.19795 12.7596 3.39401 10.2401 -0.0715133 8.14134 -89.8894 10.5918 -0.0914214 0.227357 -1.07909 -0.0813256 0.231153 -23.6143 -0.155559 0.189354 -3.60165 -0.15553 0.189364 92.8377 -25.5641 -102.514 46.7149 -8.14985 50.6567 -47.8894 -5.44097 -87.3 -41.1079 10.3577 -32.7466 -87.4121 -48.8394 82.4061 -13.6241 8.77268 -19.3452 15.3836 16.1831 -51.583 25.7255 -18.4002 -66.1058 28.8874 0.0896338 -9.88707 -3.62137 3.93863 0.355986 
121.69 85.1217 69.6007 84.0368 -0.378624 100.524 -173.937 2.80443 83.6879 -43.9564 18.4493 -1.39354 106.952 32.2816 -4.53247 2.39573 -2.52166 -14.904 170.224 38.0524 92.6912 -116.002 0.362044 -4.02622 77.121 -14.359 -8.67812 12.4017 3.83006 9.5092 -0.6063 8.27449 -90.0961 10.3249 -1.25183 -0.0823986 -1.34547 -1.25427 -0.0272167 -23.885 -1.1692 -0.454867 -3.87232 -1.16919 -0.45487 94.8188 -23.4151 -98.8485 51.0111 -9.13762 55.9299 -42.4603 -6.29067 -85.1836 -54.5819 13.0693 -30.5009 -87.8239 -45.78 81.2022 -13.7058 3.43795 -34.0706 15.8045 17.3565 -51.6909 22.7007 -16.5016 -66.495 29.4317 -0.180614 -11.0347 -4.23279 4.16795 1.53261 
127.338 85.6253 71.3296 83.7698 2.01948 102.031 -173.481 -2.3942 86.9299 -40.5263 22.6325 -0.311929 101.673 31.2082 -0.246535 9.70255 -0.0555438 -14.7641 169.662 44.249 95.4325 -112.85 4.08612 -3.84148 80.0835 -16.1078 -8.63191 14.4279 3.62434 8.00379 -1.05063 8.28862 -90.3832 10.2923 -2.26835 -0.565892 -1.37672 -2.29107 -0.465471 -23.9239 -1.9934 -1.2217 -3.91122 -1.99338 -1.22168 95.4607 -21.9105 -97.8213 51.3222 -5.89464 62.8834 -44.614 -7.09152 -84.951 -50.9094 14.5919 -35.8635 -87.8455 -43.3684 80.6834 -14.7099 -1.88346 -44.0766 15.8231 17.5409 -52.3909 21.7521 -16.6672 -68.9977 30.3213 0.275625 -11.5462 -6.43245 4.86178 2.04455 
133.969 86.8176 72.6582 84.0571 3.24703 103.682 -172.887 -8.7714 90.8591 -35.1059 25.2611 1.02201 91.8929 26.7684 4.93023 22.988 3.93323 -14.2964 169.709 47.7516 98.3702 -105.864 6.95774 -3.39589 82.558 -16.9248 -7.4999 16.3217 3.06902 7.46461 -1.45222 8.29576 -90.6981 10.2675 -3.21234 -1.11024 -1.39988 -3.25806 -0.967654 -23.9557 -2.73013 -2.02484 -3.9431 -2.73012 -2.02483 95.5928 -21.1143 -97.7416 48.9949 -2.58385 71.2831 -44.784 -4.83869 -87.3378 -38.637 13.1597 -42.0613 -86.9662 -39.1435 81.2767 -17.232 -4.56009 -50.0161 17.7475 18.3326 -53.9083 24.1604 -18.4932 -69.3151 30.13 1.71021 -12.0716 -7.01182 6.37419 2.96812 
141.178 88.6143 73.5154 84.0768 3.25995 104.987 -172.089 -13.768 93.2646 -29.3279 27.2951 2.11133 78.0652 17.0087 8.28103 30.7906 7.32884 -17.154 170.66 49.3519 99.8413 -95.5345 5.57572 -2.58779 84.2113 -16.9915 -5.91374 17.1036 2.73058 7.52141 -1.79156 8.22611 -90.9842 10.3946 -4.01971 -1.6033 -1.27089 -4.08635 -1.4246 -23.8353 -3.35204 -2.73803 -3.82268 -3.35203 -2.73803 94.6289 -19.6003 -100.535 50.5967 -1.69684 75.2356 -44.8656 -5.88636 -86.2426 -40.4585 13.3881 -41.0578 -85.4705 -34.1495 82.9045 -20.1887 -4.89433 -53.2011 17.9545 18.5227 -53.6112 25.5293 -19.0131 -68.1657 30.6048 3.15562 -12.9914 -8.83514 8.05073 4.52511 
148.777 90.348 74.2967 83.8209 2.54728 106.154 -170.996 -16.9408 95.8027 -23.7274 29.3312 2.6449 62.1204 3.89861 7.46065 47.5228 13.1911 -27.5146 171.686 49.9618 101.033 -83.6151 -1.1905 -1.30752 82.542 -15.7161 -5.89371 16.7189 3.27996 6.4465 -2.03545 8.15289 -91.2798 10.525 -4.64169 -2.12923 -1.13904 -4.7309 -1.92254 -23.7081 -3.78736 -3.42669 -3.69546 -3.78737 -3.42669 93.5858 -19.6603 -103.001 49.6673 0.324378 77.1103 -45.2853 -6.77031 -85.3501 -40.7809 13.8302 -41.8643 -84.4502 -29.1266 83.8325 -22.6487 -4.51179 -53.903 17.1705 17.7936 -53.2645 24.4488 -19.032 -70.4284 32.5804 4.21773 -14.34 -12.611 9.54672 6.60592 
